<svg width="30" height="30" viewBox="0 0 30 30" fill="none" xmlns="http://www.w3.org/2000/svg">
<path d="M25.3057 0.195182C22.7131 0.195182 20.6115 2.28323 20.6115 4.85867C20.6115 7.43411 22.7133 9.52216 25.3057 9.52216C27.8983 9.52216 30 7.43411 30 4.85867C29.9986 2.28309 27.8982 0.195182 25.3057 0.195182ZM27.8413 3.8769L24.9916 6.70794C24.7511 6.94686 24.3591 6.94686 24.1186 6.70794L22.7715 5.36974C22.5311 5.13083 22.5311 4.7414 22.7715 4.50248C23.012 4.26357 23.404 4.26357 23.6445 4.50248L24.5551 5.40704L26.9683 3.00964C27.2088 2.77073 27.6008 2.77073 27.8413 3.00964C28.0817 3.24856 28.0818 3.6366 27.8413 3.8769ZM27.5994 11.0706C28.1596 12.6118 28.4432 14.2317 28.4432 15.871C28.4432 19.7722 26.8515 23.3047 24.2785 25.8612C21.7054 28.4174 18.1493 30 14.2223 30C10.2953 30 6.73945 28.4187 4.16616 25.8626C1.59166 23.3036 0 19.7722 0 15.871C0 11.9697 1.5917 8.43716 4.16474 5.88074C6.73785 3.3245 10.2939 1.74331 14.2209 1.74331C15.5874 1.74331 16.9497 1.93666 18.2593 2.32332L17.4655 0.514212C17.3835 0.329158 17.4697 0.112348 17.656 0.0308585C17.8423 -0.0506208 18.0605 0.0350016 18.1425 0.220057L19.2671 2.77767C19.3492 2.96273 19.263 3.17954 19.0767 3.26103L16.5022 4.37827C16.3159 4.45975 16.0977 4.37413 16.0157 4.18907C15.9336 4.00402 16.0198 3.78721 16.2061 3.70572L17.8854 2.97655C16.6926 2.64373 15.461 2.47662 14.221 2.47662C10.4982 2.47662 7.12851 3.97501 4.68903 6.39874C2.24936 8.82378 0.739589 12.1727 0.739589 15.871C0.739589 19.5694 2.24787 22.917 4.6876 25.3405C7.12727 27.7641 10.4968 29.2626 14.2196 29.2626C17.9423 29.2626 21.312 27.7642 23.7515 25.3405C26.191 22.9167 27.6995 19.5694 27.6995 15.871C27.6995 14.3188 27.4326 12.7776 26.9016 11.3178C26.8335 11.1273 26.9322 10.9174 27.124 10.8497C27.32 10.7806 27.5299 10.8801 27.5994 11.0706ZM14.2209 15.3435C14.5142 15.3435 14.7505 15.5796 14.7505 15.8696C14.7505 16.161 14.5128 16.3958 14.2209 16.3958C13.9275 16.3958 13.6912 16.1597 13.6912 15.8696C13.6912 15.5796 13.9289 15.3435 14.2209 15.3435ZM5.26434 15.871C5.26434 20.7859 9.27499 24.7702 14.2223 24.7702C19.1696 24.7702 23.1802 20.7859 23.1802 15.871C23.1802 10.9562 19.1696 6.97182 14.2223 6.97182C9.27499 6.97182 5.26434 10.9562 5.26434 15.871ZM21.9539 15.871C21.9539 17.9922 21.0879 19.9133 19.6894 21.3024C18.2896 22.6931 16.3573 23.552 14.2222 23.552C12.0871 23.552 10.1532 22.6917 8.75496 21.3024C7.35511 19.9117 6.49045 17.9921 6.49045 15.871C6.49045 13.7499 7.3565 11.8287 8.75496 10.4397C10.1548 9.04899 12.0871 8.19 14.2222 8.19C16.3573 8.19 18.2912 9.05036 19.6894 10.4397C21.0879 11.8289 21.9539 13.7499 21.9539 15.871ZM9.27748 10.9586C8.01247 12.2154 7.22984 13.9527 7.22984 15.8696C7.22984 17.7878 8.01247 19.5238 9.27748 20.7806C10.5425 22.0373 12.2913 22.8148 14.2209 22.8148C16.1517 22.8148 17.8991 22.0373 19.1642 20.7806C20.4293 19.5239 21.2119 17.7865 21.2119 15.8696C21.2119 13.9514 20.4293 12.2155 19.1642 10.9586C17.8992 9.70193 16.1505 8.92444 14.2209 8.92444C12.29 8.92444 10.5426 9.70193 9.27748 10.9586ZM10.9776 10.2889C11.1541 10.1867 11.3807 10.2474 11.4822 10.4228L11.6059 10.6355C11.7088 10.8109 11.6476 11.036 11.4711 11.1368C11.2945 11.239 11.0679 11.1782 10.9665 11.0029L10.8427 10.7902C10.7399 10.6148 10.801 10.3911 10.9776 10.2889ZM8.10283 16.2382C7.89848 16.2382 7.73304 16.0738 7.73304 15.8708C7.73304 15.6678 7.89846 15.5034 8.10283 15.5034H8.34888C8.55322 15.5034 8.71866 15.6678 8.71866 15.8708C8.71866 16.0738 8.55324 16.2382 8.34888 16.2382H8.10283ZM9.32196 19.1038L9.10789 19.2267C8.93134 19.3289 8.70476 19.2681 8.60326 19.0927C8.50039 18.9173 8.56156 18.6922 8.73811 18.5914L8.95218 18.4685C9.12873 18.3663 9.35531 18.427 9.45681 18.6024C9.55829 18.7778 9.49851 19.0029 9.32196 19.1038ZM9.45681 13.1378C9.35394 13.3132 9.12874 13.3726 8.95218 13.2718L8.73811 13.1489C8.56156 13.0467 8.50179 12.823 8.60326 12.6476C8.70613 12.4722 8.93133 12.4128 9.10789 12.5136L9.32196 12.6365C9.49851 12.7373 9.55828 12.9624 9.45681 13.1378ZM11.6045 21.1062L11.4822 21.3175C11.3793 21.4929 11.1541 21.5522 10.9776 21.4514C10.8011 21.3492 10.7413 21.1255 10.8428 20.9501L10.9665 20.7374C11.0693 20.5621 11.2945 20.5027 11.4711 20.6035C11.6476 20.7057 11.7074 20.9294 11.6045 21.1062ZM14.5919 21.9486C14.5919 22.1516 14.4265 22.3159 14.2221 22.3159C14.0178 22.3159 13.8523 22.1516 13.8523 21.9486V21.7041C13.8523 21.5011 14.0177 21.3368 14.2221 21.3368C14.4265 21.3368 14.5919 21.5011 14.5919 21.7041V21.9486ZM20.3385 15.5022C20.5428 15.5022 20.7083 15.6666 20.7083 15.8696C20.7083 16.0726 20.5428 16.2369 20.3385 16.2369H20.0924C19.8881 16.2369 19.7226 16.0726 19.7226 15.8696C19.7226 15.6666 19.8881 15.5022 20.0924 15.5022H20.3385ZM19.1207 12.6366L19.3348 12.5137C19.5113 12.4115 19.7379 12.4723 19.8394 12.6477C19.9423 12.8231 19.8811 13.0482 19.7046 13.149L19.4905 13.2719C19.314 13.3741 19.0874 13.3133 18.9859 13.1379C18.883 12.9626 18.9442 12.7375 19.1207 12.6366ZM18.9859 18.6025C19.0887 18.4272 19.3139 18.3678 19.4905 18.4686L19.7046 18.5915C19.8811 18.6937 19.9409 18.9174 19.8394 19.0928C19.7366 19.2682 19.5114 19.3276 19.3348 19.2268L19.1207 19.1039C18.9442 19.003 18.883 18.7779 18.9859 18.6025ZM16.8368 10.6356L16.9605 10.4229C17.0633 10.2476 17.2885 10.1882 17.4651 10.289C17.6416 10.3912 17.7014 10.6149 17.5999 10.7903L17.4762 11.003C17.3733 11.1784 17.1481 11.2377 16.9716 11.1369C16.795 11.0347 16.7339 10.811 16.8368 10.6356ZM16.9716 20.6036C17.1481 20.5014 17.3747 20.5621 17.4762 20.7375L17.5999 20.9502C17.7028 21.1256 17.6416 21.3507 17.4651 21.4515C17.2886 21.5537 17.062 21.4929 16.9605 21.3175L16.8368 21.1049C16.7339 20.9295 16.795 20.7058 16.9716 20.6036ZM14.8378 11.7556V14.7662C15.2409 14.9885 15.4911 15.4097 15.4911 15.8696C15.4911 16.567 14.9225 17.1318 14.2205 17.1318C13.9814 17.1318 13.7576 17.0655 13.5658 16.9509L11.8768 17.9204C11.5821 18.0903 11.2054 17.9894 11.0358 17.698C10.8648 17.4053 10.9663 17.031 11.2596 16.8625L12.95 15.8931C12.9416 15.4249 13.1933 14.994 13.6033 14.7676V11.757C13.6033 11.4186 13.88 11.1438 14.2205 11.1438C14.5611 11.1424 14.8378 11.4173 14.8378 11.7556ZM14.5917 9.79321V10.0377C14.5917 10.2407 14.4263 10.405 14.2219 10.405C14.0176 10.405 13.8521 10.2407 13.8521 10.0377V9.79321C13.8521 9.59021 14.0176 9.42585 14.2219 9.42585C14.4249 9.42447 14.5917 9.58881 14.5917 9.79321Z" fill="white"/>
</svg>
