<svg width="35" height="33" viewBox="0 0 35 33" fill="none" xmlns="http://www.w3.org/2000/svg">
<path d="M16.3128 8.94531H2.0127C0.901074 8.94531 0 9.84085 0 10.9469V30.9936C0 32.0972 0.901074 32.9983 2.0127 32.9983H16.3128C17.4165 32.9983 18.3172 32.0969 18.3172 30.9936V10.9469C18.3176 9.84085 17.4165 8.94531 16.3128 8.94531ZM9.58214 10.451C10.1373 10.451 10.5829 10.8981 10.5829 11.4532C10.5829 12.0056 10.1373 12.4554 9.58214 12.4554C9.03117 12.4554 8.5841 12.0056 8.5841 11.4532C8.5841 10.8978 9.03256 10.451 9.58214 10.451ZM6.52084 10.451C7.07042 10.451 7.51888 10.8981 7.51888 11.4532C7.51888 12.0056 7.07042 12.4554 6.52084 12.4554C5.9626 12.4554 5.51276 12.0056 5.51276 11.4532C5.51276 10.8978 5.96122 10.451 6.52084 10.451ZM3.5056 10.451C4.06211 10.451 4.51056 10.8981 4.51056 11.4532C4.51056 12.0056 4.06349 12.4554 3.5056 12.4554C2.95741 12.4554 2.50895 12.0056 2.50895 11.4532C2.50895 10.8978 2.95741 10.451 3.5056 10.451ZM16.3128 30.9936H2.0127V13.9805H16.3128V30.9936Z" fill="#3F77A5"/>
<path d="M32.6204 0H8.5747C7.46411 0 6.57031 0.895533 6.57031 2.00439V7.81393H8.5747V5.03486H32.6208V22.0483H19.4478V24.0527H32.6204C33.7251 24.0527 34.6276 23.1516 34.6276 22.0483V2.00439C34.6276 0.895533 33.7255 0 32.6204 0ZM10.0759 3.50837C9.52218 3.50837 9.07649 3.06407 9.07649 2.50895C9.07649 1.94933 9.52218 1.50675 10.0759 1.50675C10.6283 1.50675 11.0781 1.94794 11.0781 2.50895C11.0781 3.06441 10.6269 3.50837 10.0759 3.50837ZM13.0825 3.50837C12.526 3.50837 12.0803 3.06407 12.0803 2.50895C12.0803 1.94933 12.5246 1.50675 13.0825 1.50675C13.6362 1.50675 14.0861 1.94794 14.0861 2.50895C14.0847 3.06441 13.6348 3.50837 13.0825 3.50837ZM16.1535 3.50837C15.597 3.50837 15.1458 3.06407 15.1458 2.50895C15.1458 1.94933 15.5956 1.50675 16.1535 1.50675C16.7003 1.50675 17.1474 1.94794 17.1474 2.50895C17.1474 3.06441 16.7003 3.50837 16.1535 3.50837Z" fill="#3F77A5"/>
</svg>
