<svg width="33" height="33" viewBox="0 0 33 33" fill="none" xmlns="http://www.w3.org/2000/svg">
<path fill-rule="evenodd" clip-rule="evenodd" d="M18.9697 6.15827C20.0645 6.4182 21.1084 6.85092 22.068 7.44191L24.0816 6.54667L26.4533 8.91845L25.5614 10.932C26.1528 11.8916 26.5852 12.9358 26.8455 14.0336L28.8996 14.8242V18.1791L26.8455 18.9697C26.5852 20.0645 26.1495 21.1084 25.5614 22.068L26.4533 24.0816L24.0816 26.4533L22.068 25.5614C21.1117 26.1528 20.0645 26.5852 18.9697 26.8455L18.1791 28.8996H14.8242L14.0336 26.8455C12.9358 26.5852 11.8916 26.1495 10.932 25.5614L8.91845 26.4533L6.54667 24.0816L7.44191 22.068C6.85092 21.1117 6.4182 20.0645 6.15492 18.9697L4.10042 18.1791V14.8242L6.15492 14.0336C6.4182 12.9358 6.85092 11.8916 7.44191 10.932L6.54667 8.91845L8.91845 6.54667L10.932 7.44191C11.8916 6.85092 12.9358 6.4182 14.0303 6.15827L14.8242 4.10042H18.1791L18.9697 6.15827ZM16.4993 8.22542C11.9278 8.22542 8.22542 11.9278 8.22542 16.4993C8.22542 21.0711 11.9278 24.7783 16.4993 24.7783C21.0711 24.7783 24.7783 21.0711 24.7783 16.4993C24.7783 11.9278 21.0711 8.22542 16.4993 8.22542ZM16.5015 20.212C17.1688 20.212 17.7107 20.7538 17.7107 21.4212C17.7107 22.0889 17.1688 22.6303 16.5015 22.6303C15.8312 22.6303 15.2897 22.0889 15.2897 21.4212C15.2897 20.7538 15.8312 20.212 16.5015 20.212ZM16.5015 18.5195C15.9932 18.5195 15.5742 18.1143 15.5575 17.609L15.3177 10.9964C15.3091 10.7313 15.3985 10.4996 15.5828 10.3067C15.7671 10.1168 15.9962 10.0192 16.2613 10.0192H16.7387C17.0042 10.0192 17.2332 10.1168 17.4202 10.3067C17.6045 10.4996 17.6939 10.7313 17.6827 10.9964L17.4455 17.609C17.4258 18.1143 17.0098 18.5195 16.5015 18.5195ZM28.4993 27.8211L29.2776 27.8427C29.5792 27.8509 29.8175 28.1027 29.8093 28.4043C29.8008 28.7059 29.549 28.9439 29.2474 28.9357L27.1814 28.8787C26.8909 28.8709 26.6578 28.6374 26.6496 28.3473L26.593 26.2809C26.5844 25.9793 26.8227 25.7275 27.1244 25.7193C27.426 25.7111 27.6778 25.9491 27.6859 26.2507L27.7083 27.0659C30.3106 24.3069 31.9067 20.5881 31.9067 16.5C31.9067 7.99714 25.0032 1.09372 16.5 1.09372C8.66857 1.09372 2.19377 6.9496 1.22033 14.5181C1.13692 15.1668 1.09372 15.8286 1.09372 16.5C1.09372 17.1718 1.13692 17.8332 1.22033 18.4822C1.25869 18.7817 1.04717 19.0557 0.747766 19.0941C0.448361 19.1328 0.17428 18.9209 0.135551 18.6215C0.0461769 17.927 0 17.2187 0 16.5C0 15.7813 0.0461769 15.073 0.135551 14.3785C1.17825 6.27259 8.11222 0 16.5 0C25.6065 0 33 7.3935 33 16.5C33 20.8812 31.2889 24.8654 28.4993 27.8211ZM4.26092 25.8538C4.44451 26.0936 4.39871 26.4369 4.15926 26.6205C3.91944 26.8037 3.57609 26.7583 3.3925 26.5189C2.53488 25.3983 1.81728 24.1653 1.26651 22.8452C1.14995 22.5667 1.28178 22.2464 1.56033 22.1302C1.83888 22.014 2.15914 22.1455 2.2757 22.424C2.78997 23.6563 3.45991 24.8077 4.26092 25.8538ZM10.576 30.7247C10.8545 30.8409 10.9863 31.1615 10.8702 31.4397C10.754 31.7182 10.4333 31.85 10.1548 31.7339C8.83503 31.1827 7.60166 30.4655 6.4815 29.6075C6.24206 29.4239 6.19625 29.0806 6.37984 28.8411C6.56306 28.6013 6.90678 28.5559 7.14623 28.7394C8.19228 29.5401 9.34372 30.2104 10.576 30.7247ZM16.5 31.9063C16.802 31.9063 17.047 32.1513 17.047 32.4533C17.047 32.755 16.802 33 16.5 33C15.7813 33 15.073 32.9538 14.3785 32.8644C14.0791 32.8261 13.8676 32.5516 13.9059 32.2526C13.9443 31.9532 14.2187 31.7413 14.5181 31.78C15.1668 31.8635 15.8286 31.9063 16.5 31.9063Z" fill="#3F77A5"/>
</svg>
