<svg width="25" height="33" viewBox="0 0 25 33" fill="none" xmlns="http://www.w3.org/2000/svg">
<path d="M16.3737 11.8529C17.7303 11.8529 18.8874 10.9815 19.3138 9.76822H16.3737H15.3425V8.73697V5.79688C14.1297 6.2233 13.2578 7.38036 13.2578 8.73697C13.2583 10.4555 14.6557 11.8529 16.3737 11.8529Z" fill="white"/>
<path d="M2.45902 33H22.291C23.6491 33 24.75 31.8991 24.75 30.541V2.45902C24.75 1.10086 23.6491 0 22.291 0H2.45902C1.10086 0 0 1.10086 0 2.45902V30.541C0 31.8991 1.10086 33 2.45902 33ZM16.8218 4.14563C19.1122 4.14563 20.9689 6.00239 20.9689 8.2928H16.8218V4.14563ZM16.3788 4.58855V8.73572H20.526C20.526 11.0261 18.6692 12.8829 16.3788 12.8829C14.0884 12.8829 12.2317 11.0261 12.2317 8.73572C12.2317 6.44531 14.0889 4.58855 16.3788 4.58855ZM3.73158 4.36116H9.70922V5.39241H3.73158V4.36116ZM3.73158 6.4747H9.70922V7.50595H3.73158V6.4747ZM3.73158 8.58877H9.70922V9.62002H3.73158V8.58877ZM3.73158 10.7023H9.70922V11.7336H3.73158V10.7023ZM3.73158 12.8164H9.70922V13.8476H3.73158V12.8164ZM3.73158 14.9299H21.0189V15.9612H3.73158V14.9299ZM3.73158 17.044H21.0189V18.0752H3.73158V17.044ZM3.73158 19.158H21.0189V20.1893H3.73158V19.158ZM3.73158 21.2716H21.0189V22.3028H3.73158V21.2716ZM3.73158 23.3857H21.0189V24.4169H3.73158V23.3857ZM3.73158 25.4992H21.0189V26.5305H3.73158V25.4992ZM3.73158 27.6127H21.0189V28.644H3.73158V27.6127Z" fill="white"/>
<path d="M17.8516 5.35156V7.26041H19.7604C19.4479 6.37044 18.7415 5.66455 17.8516 5.35156Z" fill="white"/>
</svg>
