<svg width="40" height="33" viewBox="0 0 40 33" fill="none" xmlns="http://www.w3.org/2000/svg">
<path d="M39.9709 21.796C39.9709 21.7815 39.9709 21.7815 39.9709 21.7669C39.9709 21.7523 39.9709 21.7523 39.9564 21.7377C39.9564 21.7232 39.9419 21.7232 39.9419 21.7086C39.9419 21.694 39.9273 21.694 39.9128 21.694C39.9128 21.694 39.9128 21.6795 39.8983 21.6795L33.532 17.6437C33.5029 17.6291 33.4884 17.6146 33.4593 17.6146H25.0872C25.0727 17.5126 25.0436 17.396 25.0291 17.294C24.7674 16.1576 24.4767 15.3709 24.0988 14.8464C24.0698 14.5258 23.9535 14.2344 23.7791 13.9868H25.1308C25.1744 13.9868 25.2035 13.9576 25.2035 13.9139V10.796H25.843V13.9139C25.843 13.9576 25.8721 13.9868 25.9157 13.9868H36.9186C36.9622 13.9868 36.9913 13.9576 36.9913 13.9139V7.38675C36.9913 7.34305 36.9622 7.31391 36.9186 7.31391H25.9157C25.8721 7.31391 25.843 7.34305 25.843 7.38675V10.5046H25.189V7.38675C25.189 7.34305 25.1599 7.31391 25.1163 7.31391H19.7529V6.67285H25.1163C25.1599 6.67285 25.189 6.64371 25.189 6.6V3.48212H25.8285V6.6C25.8285 6.64371 25.8576 6.67285 25.9012 6.67285H36.9041C36.9477 6.67285 36.9767 6.64371 36.9767 6.6V0.0728477C36.9767 0.0291391 36.9477 0 36.9041 0H25.9012C25.8576 0 25.8285 0.0291391 25.8285 0.0728477V3.19073H25.189V0.0728477C25.189 0.0291391 25.1599 0 25.1163 0H14.1134C14.0698 0 14.0407 0.0291391 14.0407 0.0728477V3.19073H13.3866V0.0728477C13.3866 0.0291391 13.3576 0 13.314 0H2.31105C2.26744 0 2.23837 0.0291391 2.23837 0.0728477V6.6C2.23837 6.64371 2.26744 6.67285 2.31105 6.67285H13.314C13.3576 6.67285 13.3866 6.64371 13.3866 6.6V3.48212H14.0407V6.6C14.0407 6.64371 14.0698 6.67285 14.1134 6.67285H19.4622V7.31391H14.1134C14.0698 7.31391 14.0407 7.34305 14.0407 7.38675V10.5046H13.3866V7.38675C13.3866 7.34305 13.3576 7.31391 13.314 7.31391H2.31105C2.26744 7.31391 2.23837 7.34305 2.23837 7.38675V13.9139C2.23837 13.9576 2.26744 13.9868 2.31105 13.9868H13.314C13.3576 13.9868 13.3866 13.9576 13.3866 13.9139V10.796H14.0407V13.9139C14.0407 13.9576 14.0698 13.9868 14.1134 13.9868H15.2326C15.0581 14.249 14.9419 14.555 14.9128 14.8755C14.5349 15.4146 14.2442 16.1868 13.9971 17.3086C13.968 17.4252 13.9535 17.5417 13.9244 17.6728C13.8954 17.6437 13.8663 17.6291 13.8372 17.6291H6.48256C6.45349 17.6291 6.42442 17.6437 6.40988 17.6583L0.0581395 21.694L0.0436046 21.7086L0.0290698 21.7232C0.0145349 21.7377 0.0145349 21.7377 0.0145349 21.7523V21.7669C0.0145349 21.7815 0 21.796 0 21.8252V22.7139C0 22.8013 0.0581395 22.8596 0.145349 22.8596H1.2936V30.596C1.2936 30.6834 1.35174 30.7417 1.43895 30.7417H3.29942C3.34302 30.7417 3.38663 30.7126 3.4157 30.6689L4.20058 30.1152C4.24419 30.0861 4.25872 30.0424 4.25872 29.9987V22.8596H7.5436V25.8609C7.5436 25.9483 7.60174 26.0066 7.68895 26.0066H9.24419C9.25872 26.0066 9.27326 26.0066 9.30233 25.9921C9.30233 25.9921 9.31686 25.9921 9.31686 25.9775C9.3314 25.9775 9.3314 25.9629 9.34593 25.9629L10.0291 25.3801C10.0581 25.351 10.0872 25.3073 10.0872 25.2636V22.845H14.9273V23.3987C14.9273 24.0834 15.2907 24.6808 15.843 25.0159H15.7994C15.3198 25.0159 14.9419 25.3947 14.9419 25.8755V26.0066C14.9419 26.4874 15.3198 26.8662 15.7994 26.8662H16.2209C16.2209 26.8662 16.2209 26.8662 16.2209 26.8808L16.468 30.4795C16.468 30.5523 16.4826 30.6252 16.4971 30.698L15.5959 30.9166C15.5959 30.9166 15.5959 30.9166 15.5814 30.9166C15.5669 30.9166 15.5669 30.9311 15.5523 30.9311C15.5378 30.9311 15.5378 30.9457 15.5233 30.9457L15.5087 30.9603C15.5087 30.9748 15.4942 30.9748 15.4942 30.9894C15.4942 31.004 15.4942 31.004 15.4797 31.0185C15.4797 31.0331 15.4797 31.0331 15.4797 31.0477V31.0623V31.5868C15.1599 31.6596 14.9128 31.9364 14.9128 32.2861C14.9128 32.6795 15.2326 33 15.625 33C16.0174 33 16.3372 32.6795 16.3372 32.2861C16.3372 31.9364 16.0901 31.6596 15.7703 31.5868V31.1788L16.5698 30.9894C16.657 31.2371 16.8023 31.4556 16.9913 31.6159C17.2238 31.8344 17.5291 31.9364 17.8198 31.9364C17.8488 31.9364 17.8779 31.9364 17.8924 31.9364C18.2122 31.9219 18.5174 31.7616 18.75 31.4993C19.0116 31.1934 19.1424 30.7854 19.1279 30.3629L19.3895 30.3046V31.5868C19.0698 31.6596 18.8227 31.9364 18.8227 32.2861C18.8227 32.6795 19.1424 33 19.5349 33C19.9273 33 20.2471 32.6795 20.2471 32.2861C20.2471 31.9364 20 31.6596 19.6802 31.5868V30.2901L19.9419 30.3483C19.9273 30.7709 20.0581 31.1788 20.3198 31.4848C20.5523 31.747 20.843 31.9073 21.1773 31.9219C21.2064 31.9219 21.2355 31.9219 21.25 31.9219C21.5552 31.9219 21.8459 31.8053 22.0785 31.6013C22.2674 31.4411 22.4128 31.2079 22.5 30.9748L23.314 31.1788V31.5868C22.9942 31.6596 22.7471 31.9364 22.7471 32.2861C22.7471 32.6795 23.0669 33 23.4593 33C23.8517 33 24.1715 32.6795 24.1715 32.2861C24.1715 31.9364 23.9244 31.6596 23.6047 31.5868V31.0623V31.0477C23.6047 31.0331 23.6047 31.0331 23.6047 31.0185C23.6047 31.004 23.6047 31.004 23.5901 30.9894C23.5901 30.9748 23.5756 30.9748 23.5756 30.9603C23.5756 30.9457 23.561 30.9457 23.561 30.9457C23.561 30.9457 23.5465 30.9311 23.532 30.9311C23.5174 30.9311 23.5174 30.9166 23.5029 30.9166C23.5029 30.9166 23.5029 30.9166 23.4884 30.9166L22.5727 30.698C22.5872 30.6252 22.6017 30.5669 22.6017 30.494L22.8488 26.8954C22.8488 26.8954 22.8488 26.8954 22.8488 26.8808H23.2704C23.75 26.8808 24.1279 26.502 24.1279 26.0212V25.8755C24.1279 25.3947 23.75 25.0159 23.2704 25.0159H23.2122C23.75 24.6808 24.1279 24.0834 24.1279 23.3987V22.845H29.7529V25.2636C29.7529 25.3073 29.7674 25.351 29.7965 25.3801L30.4651 25.9629C30.4651 25.9629 30.4797 25.9775 30.4942 25.9775L30.5087 25.9921C30.5233 25.9921 30.5378 26.0066 30.5669 26.0066H32.1366C32.2238 26.0066 32.282 25.9483 32.282 25.8609V22.8596H35.8866V29.9987C35.8866 30.0424 35.9157 30.0861 35.9448 30.1152L36.7151 30.6543C36.7442 30.698 36.7878 30.7272 36.8459 30.7272H38.7064C38.7936 30.7272 38.8517 30.6689 38.8517 30.5815V22.845H39.8547C39.9419 22.845 40 22.7868 40 22.6993V21.8106C39.9709 21.8106 39.9709 21.796 39.9709 21.796ZM16.0174 32.2715C16.0174 32.5046 15.8285 32.694 15.5959 32.694C15.3634 32.694 15.1744 32.5046 15.1744 32.2715C15.1744 32.0384 15.3634 31.849 15.5959 31.849C15.8285 31.849 16.0174 32.0384 16.0174 32.2715ZM23.8517 32.2715C23.8517 32.5046 23.6628 32.694 23.4302 32.694C23.1977 32.694 23.0087 32.5046 23.0087 32.2715C23.0087 32.0384 23.1977 31.849 23.4302 31.849C23.6628 31.849 23.8517 32.0384 23.8517 32.2715ZM16.7297 30.4503L16.4826 26.8662H18.6047C18.5901 26.8954 18.5756 26.9245 18.5756 26.9536L18.7936 30.1298L16.7442 30.6252C16.7442 30.5669 16.7297 30.5086 16.7297 30.4503ZM18.5029 31.2954C18.3285 31.4993 18.0959 31.6159 17.8488 31.6305C17.6017 31.645 17.3547 31.5576 17.1512 31.3828C17.0058 31.2517 16.8895 31.0914 16.8169 30.902L18.8081 30.4212C18.8081 30.7417 18.7064 31.0623 18.5029 31.2954ZM19.0843 30.057L18.8663 26.9391C18.8663 26.9099 18.8517 26.8954 18.8517 26.8808H19.3605V29.9987L19.0843 30.057ZM19.9273 32.2715C19.9273 32.5046 19.7384 32.694 19.5058 32.694C19.2733 32.694 19.0843 32.5046 19.0843 32.2715C19.0843 32.0384 19.2733 31.849 19.5058 31.849C19.7384 31.849 19.9273 32.0384 19.9273 32.2715ZM19.6512 26.8662H20.1599C20.1454 26.8808 20.1454 26.9099 20.1454 26.9245L19.9273 30.0424L19.6512 29.9695V26.8662ZM21.8605 31.3828C21.657 31.5576 21.4099 31.645 21.1628 31.6305C20.9157 31.6159 20.6831 31.4993 20.5087 31.2954C20.3052 31.0623 20.2035 30.7417 20.2035 30.4212L22.1948 30.902C22.1076 31.0768 22.0058 31.2517 21.8605 31.3828ZM22.282 30.4503C22.282 30.5086 22.2674 30.5523 22.2674 30.6106L20.218 30.1152L20.436 26.9391C20.436 26.9099 20.4215 26.8808 20.407 26.8517H22.5291L22.282 30.4503ZM23.8081 25.8755V26.0066C23.8081 26.3272 23.5465 26.5748 23.2413 26.5748H15.7703C15.4506 26.5748 15.2035 26.3126 15.2035 26.0066V25.8755C15.2035 25.555 15.4506 25.3073 15.7703 25.3073H23.2413C23.561 25.3073 23.8081 25.555 23.8081 25.8755ZM33.4157 17.9205L39.3169 21.6649H25.8721C25.8866 21.6066 25.9012 21.5338 25.9157 21.4609V21.3589C25.9157 21.0384 25.6977 20.7762 25.3924 20.7033C25.7558 20.4119 25.9884 19.9457 25.9884 19.4066C25.9884 18.7801 25.6541 18.2119 25.1454 17.9642H25.1308C25.1308 17.9497 25.1308 17.9351 25.1308 17.9205H33.4157ZM24.1424 21.3589C24.1424 21.1695 24.2878 21.0093 24.4767 20.9656C24.5204 20.9656 24.564 20.9801 24.6076 20.9801C24.6657 20.9801 24.7238 20.9801 24.782 20.9656H25.2326C25.4506 20.9656 25.625 21.1404 25.625 21.3589V21.4609C25.6105 21.694 25.4506 21.8543 25.2326 21.8543H24.5349C24.3169 21.8543 24.1424 21.6795 24.1424 21.4609V21.3589ZM24.9273 18.8821C24.9273 18.955 25 19.0278 25.0727 19.0278C25.1599 19.0278 25.218 18.955 25.218 18.8821C25.218 18.6927 25.2035 18.5179 25.1744 18.3285C25.4942 18.5616 25.6977 18.9695 25.6977 19.4066C25.6977 20.0477 25.2907 20.5868 24.7674 20.6742H24.5349C24.5058 20.6742 24.4913 20.6742 24.4622 20.6742C24.3169 20.6596 24.2006 20.6159 24.0988 20.543V15.4146C24.3459 15.8954 24.5494 16.5219 24.7384 17.3523C24.8547 17.8623 24.9128 18.3722 24.9273 18.8821ZM16.8459 11.9179C16.8459 11.9324 16.8459 11.9325 16.8605 11.947C16.8459 11.9325 16.8459 11.9179 16.8459 11.9179ZM18.0523 13.1563C18.0378 13.1417 18.0378 13.1272 18.0233 13.1126C17.3837 12.6172 17.0204 11.8596 17.0204 11.0437C17.0204 9.60132 18.1977 8.42119 19.6366 8.42119C21.0756 8.42119 22.2529 9.60132 22.2529 11.0437C22.2529 11.8887 21.875 12.6464 21.2209 13.1272C21.2064 13.1417 21.2064 13.1417 21.1919 13.1563H18.0523ZM22.0203 12.7046C22.0203 12.7192 22.0058 12.7192 22.0058 12.7338C22.0058 12.7192 22.0203 12.7046 22.0203 12.7046ZM21.8314 12.9377L21.8169 12.9523C21.8314 12.9523 21.8314 12.9377 21.8314 12.9377ZM22.9215 13.302C22.907 13.2874 22.8779 13.2874 22.8634 13.2728C22.8779 13.2874 22.8924 13.2874 22.9215 13.302ZM22.718 13.2291C22.689 13.2291 22.6744 13.2146 22.6454 13.2146C22.6744 13.2146 22.689 13.2146 22.718 13.2291ZM22.5 13.1854C22.4709 13.1854 22.4564 13.1709 22.4273 13.1709C22.4564 13.1709 22.4709 13.1709 22.5 13.1854ZM22.3837 11.947C22.3837 11.9325 22.3983 11.9179 22.3983 11.9179C22.3983 11.9324 22.3983 11.947 22.3837 11.947ZM16.7297 11.3497C16.7297 11.3351 16.7297 11.3205 16.7297 11.3205C16.7297 11.3351 16.7297 11.3497 16.7297 11.3497ZM15.5523 13.6225C15.5378 13.6371 15.5233 13.6517 15.5087 13.6662C15.5087 13.6517 15.5233 13.6371 15.5523 13.6225ZM16.3517 13.2146C16.3227 13.2146 16.3081 13.2291 16.2791 13.2291C16.3081 13.2146 16.3227 13.2146 16.3517 13.2146ZM16.1337 13.2728C16.1192 13.2874 16.0901 13.2874 16.0756 13.302C16.1047 13.2874 16.1192 13.2874 16.1337 13.2728ZM14.8837 21.3589V21.4609C14.8837 21.6649 14.6948 21.8543 14.4913 21.8543H13.7936C13.5756 21.8543 13.4012 21.6795 13.4012 21.4609V21.3589C13.4012 21.1404 13.5756 20.9656 13.7936 20.9656H14.2297C14.2878 20.9801 14.3459 20.9801 14.4041 20.9801C14.4622 20.9801 14.5058 20.9801 14.5494 20.9656C14.7384 20.9947 14.8837 21.155 14.8837 21.3589ZM14.2733 17.3669C14.4622 16.551 14.6657 15.9245 14.8983 15.4583V20.5576C14.7965 20.6305 14.6948 20.6596 14.5494 20.6742C14.5349 20.6742 14.5058 20.6742 14.4913 20.6742H14.2442C13.7209 20.5868 13.314 20.0477 13.314 19.4066C13.314 18.955 13.5174 18.547 13.8372 18.3285C13.8227 18.5179 13.8081 18.6927 13.7936 18.8821C13.7936 18.9695 13.8517 19.0278 13.939 19.0278C14.0116 19.0278 14.0843 18.9695 14.0843 18.8821C14.0988 18.3868 14.157 17.8623 14.2733 17.3669ZM6.52616 17.9205H13.8227C13.8372 17.9205 13.8663 17.9205 13.8808 17.906C13.8808 17.9205 13.8808 17.9351 13.8663 17.9642H13.8517C13.343 18.2119 13.0087 18.7801 13.0087 19.4066C13.0087 19.9457 13.2413 20.4119 13.6047 20.7033C13.314 20.7762 13.0959 21.053 13.0959 21.3589V21.4609C13.0959 21.5338 13.1105 21.6066 13.125 21.6649H0.625L6.52616 17.9205ZM1.56977 22.845H3.13953V30.4358H1.56977V22.845ZM3.95349 29.9113L3.43023 30.2901V22.845H3.95349V29.9113ZM7.81977 25.7007V22.845H9.0843V25.7007H7.81977ZM9.76744 25.1907L9.375 25.5258V22.845H9.76744V25.1907ZM4.09884 22.5536H3.28488H1.42442H0.276163V21.9563H13.3285C13.4448 22.0728 13.6192 22.1457 13.7936 22.1457H14.4913C14.6366 22.1457 14.782 22.0874 14.8983 22V22.5536H4.09884ZM23.8081 23.3987C23.8081 24.2874 23.0959 25.0013 22.2093 25.0013H16.7878C15.9012 25.0013 15.189 24.2874 15.189 23.3987V15.0503C15.189 14.1616 15.9012 13.4477 16.7878 13.4477H22.2093C23.0959 13.4477 23.8081 14.1616 23.8081 15.0503V23.3987ZM30.0145 22.845H30.3924V25.5258L30.0145 25.1907V22.845ZM31.9622 25.7007H30.6831V22.845H31.9622V25.7007ZM36.1483 22.845H36.6715V30.2755L36.1483 29.9113V22.845ZM38.532 30.4358H36.9767V22.845H38.532V30.4358ZM39.6802 22.5536H38.7064C38.6919 22.5536 38.6773 22.5536 38.6773 22.5536H36.8169C36.8023 22.5536 36.7878 22.5536 36.7878 22.5536H36.0174H24.1134V21.9854C24.2297 22.0874 24.3895 22.1457 24.5494 22.1457H25.2471C25.436 22.1457 25.5959 22.0728 25.7122 21.9563H39.6948V22.5536H39.6802Z" fill="#3F77A5"/>
<path d="M39.6802 22.5536H38.7064H38.6773H36.8169H36.7878H36.0174H24.1134V21.9854C24.2297 22.0874 24.3895 22.1457 24.5494 22.1457H25.2471C25.436 22.1457 25.5959 22.0728 25.7122 21.9563H39.6948V22.5536H39.6802Z" fill="#3F77A5"/>
<path d="M4.09884 22.5536H3.28488H1.42442H0.276163V21.9563H13.3285C13.4448 22.0728 13.6192 22.1457 13.7936 22.1457H14.4913C14.6366 22.1457 14.782 22.0874 14.8983 22V22.5536H4.09884Z" fill="#3F77A5"/>
<path d="M31.9622 25.7007H30.6831V22.845H31.9622V25.7007Z" fill="#3F77A5"/>
<path d="M1.56977 22.845H3.13953V30.4358H1.56977V22.845Z" fill="#3F77A5"/>
<path d="M38.532 30.4358H36.9767V22.845H38.532V30.4358Z" fill="#3F77A5"/>
<path d="M7.81977 25.7007V22.845H9.0843V25.7007H7.81977Z" fill="#3F77A5"/>
<path d="M6.52616 17.9205H13.8227C13.8372 17.9205 13.8663 17.9205 13.8808 17.906C13.8808 17.9205 13.8808 17.9351 13.8663 17.9642H13.8517C13.343 18.2119 13.0087 18.7801 13.0087 19.4066C13.0087 19.9457 13.2413 20.4119 13.6047 20.7033C13.314 20.7762 13.0959 21.053 13.0959 21.3589V21.4609C13.0959 21.5338 13.1105 21.6066 13.125 21.6649H0.625L6.52616 17.9205Z" fill="#3F77A5"/>
<path d="M33.4157 17.9205L39.3169 21.6649H25.8721C25.8866 21.6066 25.9012 21.5338 25.9157 21.4609V21.3589C25.9157 21.0384 25.6977 20.7762 25.3924 20.7033C25.7558 20.4119 25.9884 19.9457 25.9884 19.4066C25.9884 18.7801 25.6541 18.2119 25.1454 17.9642H25.1308V17.9205H33.4157Z" fill="#3F77A5"/>
<path d="M23.8081 23.3987C23.8081 24.2874 23.0959 25.0013 22.2093 25.0013H16.7878C15.9012 25.0013 15.189 24.2874 15.189 23.3987V15.0503C15.189 14.1616 15.9012 13.4477 16.7878 13.4477H22.2093C23.0959 13.4477 23.8081 14.1616 23.8081 15.0503V23.3987Z" fill="#3F77A5"/>
<path d="M24.1424 21.3589C24.1424 21.1695 24.2878 21.0093 24.4767 20.9656C24.5204 20.9656 24.564 20.9801 24.6076 20.9801C24.6657 20.9801 24.7238 20.9801 24.782 20.9656H25.2326C25.4506 20.9656 25.625 21.1404 25.625 21.3589V21.4609C25.6105 21.694 25.4506 21.8543 25.2326 21.8543H24.5349C24.3169 21.8543 24.1424 21.6795 24.1424 21.4609V21.3589Z" fill="#3F77A5"/>
<path fill-rule="evenodd" clip-rule="evenodd" d="M15.5959 32.694C15.8285 32.694 16.0174 32.5046 16.0174 32.2715C16.0174 32.0384 15.8285 31.849 15.5959 31.849C15.3634 31.849 15.1744 32.0384 15.1744 32.2715C15.1744 32.5046 15.3634 32.694 15.5959 32.694Z" fill="#3F77A5"/>
<path fill-rule="evenodd" clip-rule="evenodd" d="M19.5058 32.694C19.7384 32.694 19.9273 32.5046 19.9273 32.2715C19.9273 32.0384 19.7384 31.849 19.5058 31.849C19.2733 31.849 19.0843 32.0384 19.0843 32.2715C19.0843 32.5046 19.2733 32.694 19.5058 32.694Z" fill="#3F77A5"/>
<path fill-rule="evenodd" clip-rule="evenodd" d="M23.4302 32.694C23.6628 32.694 23.8517 32.5046 23.8517 32.2715C23.8517 32.0384 23.6628 31.849 23.4302 31.849C23.1977 31.849 23.0087 32.0384 23.0087 32.2715C23.0087 32.5046 23.1977 32.694 23.4302 32.694Z" fill="#3F77A5"/>
</svg>
