<svg width="36" height="33" viewBox="0 0 36 33" fill="none" xmlns="http://www.w3.org/2000/svg">
<path d="M3.94998 24.2751C3.94998 25.3382 2.37073 25.3382 2.37073 24.2751C2.37073 23.2139 3.94998 23.2139 3.94998 24.2751Z" fill="#3F77A5"/>
<path d="M33.6216 13.5017C33.6216 14.5629 32.0423 14.5629 32.0423 13.5017C32.0423 12.4386 33.6216 12.4386 33.6216 13.5017Z" fill="#3F77A5"/>
<path d="M33.6216 24.2751C33.6216 25.3382 32.0423 25.3382 32.0423 24.2751C32.0423 23.2139 33.6216 23.2139 33.6216 24.2751Z" fill="#3F77A5"/>
<path d="M0 13.1036H1.63173C1.80804 12.415 2.42887 11.908 3.16595 11.908C4.03809 11.908 4.74895 12.625 4.74895 13.5046C4.74895 14.3842 4.03809 15.1012 3.16595 15.1012C2.43075 15.1012 1.81179 14.5923 1.63173 13.9056H0V18.4929H1.63173C1.80804 17.8043 2.42887 17.2973 3.16595 17.2973C4.03809 17.2973 4.74895 18.0143 4.74895 18.8939C4.74895 19.7735 4.03809 20.4905 3.16595 20.4905C2.43075 20.4905 1.81179 19.9816 1.63173 19.2949H0V23.8822H1.63173C1.80804 23.1936 2.42887 22.6867 3.16595 22.6867C4.03809 22.6867 4.74895 23.4036 4.74895 24.2832C4.74895 25.1628 4.03809 25.8798 3.16595 25.8798C2.43075 25.8798 1.81179 25.3709 1.63173 24.6842H0V33H36V24.6842H34.3683C34.192 25.3728 33.5711 25.8798 32.8341 25.8798C31.9619 25.8798 31.2511 25.1628 31.2511 24.2832C31.2511 23.4036 31.9619 22.6867 32.8341 22.6867C33.5693 22.6867 34.1882 23.1955 34.3683 23.8822H36V19.2949H34.3683C34.192 19.9835 33.5711 20.4905 32.8341 20.4905C31.9619 20.4905 31.2511 19.7735 31.2511 18.8939C31.2511 18.0143 31.9619 17.2973 32.8341 17.2973C33.5693 17.2973 34.1882 17.8062 34.3683 18.4929H36V13.9056H34.3683C34.192 14.5942 33.5711 15.1012 32.8341 15.1012C31.9619 15.1012 31.2511 14.3842 31.2511 13.5046C31.2511 12.625 31.9619 11.908 32.8341 11.908C33.5693 11.908 34.1882 12.4169 34.3683 13.1036H36V4.78588H0V13.1036ZM18.7877 28.0629V13.5012C18.7877 13.2817 18.9659 13.102 19.1834 13.102H22.7452C22.9627 13.102 23.1409 13.2817 23.1409 13.5012V28.0649H25.3166L25.3184 9.91083C25.3184 9.6914 25.4966 9.51169 25.7142 9.51169H29.2759C29.4935 9.51169 29.6717 9.6914 29.6717 9.91083V28.0629H31.0577C31.2753 28.0629 31.4534 28.2426 31.4534 28.4621V30.855C31.4534 31.0744 31.2753 31.2542 31.0577 31.2542H4.35334C4.13578 31.2542 3.9576 31.0744 3.9576 30.855V28.4621C3.9576 28.2426 4.13578 28.0629 4.35334 28.0629H5.73939V21.2794C5.73939 21.06 5.91756 20.8802 6.13513 20.8802H9.69687C9.91443 20.8802 10.0926 21.06 10.0926 21.2794V28.0629H12.2683V16.4934C12.2683 16.274 12.4464 16.0943 12.664 16.0943H16.2257C16.4433 16.0943 16.6215 16.274 16.6215 16.4934V28.0629H18.7877ZM5.60428 15.9036L8.91465 12.5648C8.35951 11.1348 8.65395 9.44173 9.79995 8.28783C10.5483 7.53305 11.5405 7.11877 12.5964 7.11877C13.6542 7.11877 14.6445 7.53493 15.3929 8.28783C16.9346 9.84274 16.9346 12.3738 15.3929 13.9285C14.6445 14.6833 13.6524 15.0976 12.5964 15.0976C12.0919 15.0976 11.6042 15.003 11.1504 14.8233L7.84186 18.1601C7.53239 18.4723 7.12913 18.6255 6.72403 18.6255C6.31893 18.6255 5.91378 18.4704 5.6062 18.1601C4.98911 17.5378 4.98907 16.5278 5.60428 15.9036Z" fill="#3F77A5"/>
<path d="M33.6216 18.8891C33.6216 19.9522 32.0423 19.9522 32.0423 18.8891C32.0423 17.826 33.6216 17.826 33.6216 18.8891Z" fill="#3F77A5"/>
<path d="M11.2281 13.9869C11.2356 13.9888 11.2431 13.9944 11.2506 13.9982C11.667 14.1969 12.1247 14.3009 12.5992 14.3009C13.4451 14.3009 14.2403 13.9699 14.8386 13.3664C16.0728 12.1217 16.0728 10.0957 14.8386 8.85294C14.2403 8.2495 13.447 7.91845 12.5992 7.91845C11.7533 7.91845 10.958 8.24949 10.3597 8.85294C9.12561 10.0976 9.12561 12.1236 10.3597 13.3664C10.6186 13.6218 10.9111 13.8299 11.2281 13.9869Z" fill="#3F77A5"/>
<path d="M19.581 13.9036H22.3493V28.0683H19.581V13.9036Z" fill="#3F77A5"/>
<path d="M26.108 10.3095H28.8763V28.0645H26.108V10.3095Z" fill="#3F77A5"/>
<path d="M7.28613 17.5962L10.4183 14.4371C10.2007 14.2896 9.99444 14.1193 9.80315 13.9283C9.61184 13.7353 9.44492 13.5272 9.29862 13.3059L6.16642 16.4649C5.85695 16.777 5.85695 17.2821 6.16642 17.5923C6.47401 17.9101 6.9748 17.9102 7.28613 17.5962Z" fill="#3F77A5"/>
<path d="M4.74521 28.8666H30.6564V30.4632H4.74521V28.8666Z" fill="#3F77A5"/>
<path d="M3.94998 18.8891C3.94998 19.9522 2.37073 19.9522 2.37073 18.8891C2.37073 17.826 3.94998 17.826 3.94998 18.8891Z" fill="#3F77A5"/>
<path d="M13.054 16.8924H15.8223V28.0644H13.054V16.8924Z" fill="#3F77A5"/>
<path d="M0 3.99139H36V0H0V3.99139ZM23.3395 1.59657H34.6133C34.8309 1.59657 35.0091 1.77627 35.0091 1.99571C35.0091 2.21514 34.8309 2.39484 34.6133 2.39484H23.3395C23.1219 2.39484 22.9437 2.21514 22.9437 1.99571C22.9419 1.77628 23.12 1.59657 23.3395 1.59657ZM6.12908 1.59657H6.72177C6.93934 1.59657 7.11752 1.77627 7.11752 1.99571C7.11752 2.21514 6.93934 2.39484 6.72177 2.39484H6.12908C5.91152 2.39484 5.73333 2.21514 5.73333 1.99571C5.73333 1.77627 5.91151 1.59657 6.12908 1.59657ZM3.75835 1.59657H4.35105C4.56861 1.59657 4.74679 1.77627 4.74679 1.99571C4.74679 2.21514 4.56862 2.39484 4.35105 2.39484H3.75835C3.54079 2.39484 3.36261 2.21514 3.36261 1.99571C3.36073 1.77628 3.53703 1.59657 3.75835 1.59657ZM1.38201 1.59657H1.9747C2.19227 1.59657 2.37045 1.77627 2.37045 1.99571C2.37045 2.21514 2.19227 2.39484 1.9747 2.39484H1.38201C1.16444 2.39484 0.986261 2.21514 0.986261 1.99571C0.986261 1.77627 1.16444 1.59657 1.38201 1.59657Z" fill="#3F77A5"/>
<path d="M6.527 21.6859H9.29534V28.0704H6.527V21.6859Z" fill="#3F77A5"/>
<path d="M3.94998 13.5017C3.94998 14.5629 2.37073 14.5629 2.37073 13.5017C2.37073 12.4386 3.94998 12.4386 3.94998 13.5017Z" fill="#3F77A5"/>
</svg>
