<svg width="103" height="29" viewBox="0 0 103 29" fill="none" xmlns="http://www.w3.org/2000/svg">
<path d="M14.1937 0C6.35417 0 0 6.35418 0 14.1937C0 22.0333 6.35417 28.3875 14.1937 28.3875C22.0333 28.3875 28.3875 22.0333 28.3875 14.1937C28.3914 6.35418 22.0333 0 14.1937 0ZM15.6005 23.8056C9.67862 23.8056 4.87664 19.0036 4.87664 13.0817C4.87664 7.15974 9.67862 2.35776 15.6005 2.35776C21.5225 2.35776 26.3244 7.15974 26.3244 13.0817C26.3284 19.0075 21.5264 23.8056 15.6005 23.8056Z" fill="white"/>
<path d="M45.9276 9.66406H33.1406V26.6282H37.9544V11.6131C37.9544 11.6131 44.2928 11.6131 44.9137 11.6131C46.7489 11.6131 47.7627 13.1693 47.7627 14.4307C47.7627 14.8551 47.7627 26.6282 47.7627 26.6282H52.5765C52.5765 26.6282 52.5765 16.6077 52.5765 14.415C52.5765 13.967 52.5725 9.66406 45.9276 9.66406Z" fill="white"/>
<path d="M83.3216 9.66406H78.5078V26.6282H83.3216V9.66406Z" fill="white"/>
<path d="M73.747 9.66406L67.2396 22.1681L60.7282 9.66406H55.1953L64.0212 26.6793H67.4164L76.2423 9.66406H73.747Z" fill="white"/>
<path d="M96.9127 11.6053C97.3921 11.6053 101.251 11.6053 103.008 11.6053V9.65625H95.8989C89.2579 9.65625 89.25 13.9631 89.25 14.4032C89.25 16.5959 89.25 26.6164 89.25 26.6164H94.0638C94.0638 26.6164 94.0638 22.0306 94.0638 18.4782H102.296V16.5291H94.0638C94.0638 15.3502 94.0638 14.525 94.0638 14.415C94.0638 13.1615 95.0815 11.6053 96.9127 11.6053Z" fill="white"/>
</svg>
