<svg width="46" height="37" viewBox="0 0 46 37" fill="none" xmlns="http://www.w3.org/2000/svg">
<path d="M11.264 0H21.248C18.688 3.072 16.5973 6.44267 14.976 10.112C13.44 13.7813 12.7573 16.896 12.928 19.456L10.24 16.256C13.1413 16.256 15.5733 17.2373 17.536 19.2C19.584 21.0773 20.608 23.3813 20.608 26.112C20.608 28.928 19.6693 31.3173 17.792 33.28C15.9147 35.2427 13.5253 36.224 10.624 36.224C7.46667 36.224 4.90667 35.1147 2.944 32.896C0.981333 30.6773 0 27.8187 0 24.32C0 21.8453 0.512 19.1573 1.536 16.256C2.64533 13.2693 4.01067 10.368 5.632 7.552C7.33867 4.65067 9.216 2.13333 11.264 0ZM35.328 0H45.312C42.752 3.072 40.6613 6.44267 39.04 10.112C37.504 13.7813 36.8213 16.896 36.992 19.456L34.304 16.256C37.2053 16.256 39.6373 17.2373 41.6 19.2C43.648 21.0773 44.672 23.3813 44.672 26.112C44.672 28.928 43.7333 31.3173 41.856 33.28C39.9787 35.2427 37.5893 36.224 34.688 36.224C31.5307 36.224 28.9707 35.1147 27.008 32.896C25.0453 30.6773 24.064 27.8187 24.064 24.32C24.064 21.8453 24.576 19.1573 25.6 16.256C26.7093 13.2693 28.0747 10.368 29.696 7.552C31.4027 4.65067 33.28 2.13333 35.328 0Z" fill="#3F77A5"/>
</svg>
