<svg width="24" height="24" viewBox="0 0 24 24" fill="none" xmlns="http://www.w3.org/2000/svg">
<path d="M12 0.5C18.3513 0.5 23.5 5.64873 23.5 12C23.5 18.3513 18.3513 23.5 12 23.5C5.64873 23.5 0.5 18.3513 0.5 12C0.5 5.64873 5.64873 0.5 12 0.5Z" fill="#7AC000" stroke="#171717"/>
<path d="M16.7224 7.06101C16.5762 7.06659 16.4327 7.10181 16.3004 7.16441C16.1682 7.22701 16.05 7.31578 15.953 7.42533C14.1841 9.33686 12.5648 11.2103 10.8707 13.0724L8.87298 11.347C8.76068 11.2484 8.62896 11.1748 8.48626 11.1305C8.34357 11.0863 8.19309 11.0725 8.04474 11.0902C7.8964 11.1079 7.75346 11.1566 7.62519 11.2332C7.49693 11.3098 7.38621 11.4126 7.30026 11.5348C7.11434 11.7886 7.02924 12.1025 7.06132 12.4154C7.09339 12.7284 7.24043 13.0181 7.47397 13.2289L10.2692 15.6388C10.4798 15.8233 10.7548 15.9171 11.0341 15.8994C11.3135 15.8816 11.5745 15.754 11.76 15.5444C13.7704 13.3731 15.5718 11.2399 17.537 9.118C17.7501 8.88619 17.8694 8.58356 17.872 8.26873C17.8746 7.9539 17.7603 7.64925 17.5511 7.41395C17.4467 7.29872 17.3185 7.20742 17.1755 7.14649C17.0324 7.08556 16.8778 7.05645 16.7224 7.06101Z" fill="#171717"/>
</svg>
